<?xml version="1.0" standalone="no"?>
<!DOCTYPE svg PUBLIC "-//W3C//DTD SVG 20010904//EN"
 "http://www.w3.org/TR/2001/REC-SVG-20010904/DTD/svg10.dtd">
<svg version="1.0" xmlns="http://www.w3.org/2000/svg"
 width="426.000000pt" height="426.000000pt" viewBox="0 0 426.000000 426.000000"
 preserveAspectRatio="xMidYMid meet">
<metadata>
Created by potrace 1.11, written by Peter Selinger 2001-2013
</metadata>
<g transform="translate(0.000000,426.000000) scale(0.100000,-0.100000)"
fill="#000000" stroke="none">
<path d="M3783 4243 c27 -7 65 -39 107 -90 13 -15 15 -254 15 -2011 0 -1319
-3 -1995 -10 -2000 -6 -4 -16 -19 -23 -33 -15 -28 -60 -59 -86 -59 -9 0 -16
-4 -16 -10 0 -6 55 -10 145 -10 80 0 145 4 145 9 0 5 17 11 39 15 39 6 101 57
101 82 0 7 6 14 13 17 16 5 18 3963 2 3975 -5 4 -17 20 -26 36 -9 16 -29 36
-45 45 -16 9 -32 21 -36 26 -4 6 -77 11 -175 12 -92 1 -160 -1 -150 -4z"/>
<path d="M513 3418 c-23 -28 -32 -243 -12 -263 7 -7 15 -4 25 9 16 23 19 40 4
31 -6 -4 -10 6 -10 24 0 33 14 44 69 55 33 6 33 5 28 -23 -16 -77 -19 -131 -8
-131 6 0 13 12 17 28 3 15 14 61 24 102 26 108 34 183 19 178 -18 -6 -27 -27
-34 -80 l-6 -48 -51 0 -50 0 7 53 c4 28 8 56 9 61 2 14 -20 17 -31 4z"/>
<path d="M841 3399 c-11 -17 -27 -62 -36 -98 -22 -86 -27 -95 -59 -99 -32 -4
-33 2 -1 40 29 34 32 56 8 65 -19 8 -63 -38 -63 -67 0 -10 -5 -22 -11 -25 -14
-9 29 -55 51 -55 8 0 25 7 37 15 21 14 22 14 25 -12 4 -34 26 -40 54 -16 40
36 61 43 74 28 20 -25 48 -17 94 25 24 22 46 40 50 40 10 0 7 -39 -4 -60 -6
-12 -7 -21 0 -25 15 -9 70 24 70 42 0 13 -3 14 -12 5 -19 -19 -28 -14 -19 11
12 30 -8 72 -33 72 -10 0 -30 -18 -45 -40 -18 -27 -35 -41 -54 -43 -33 -4 -34
2 -2 40 29 34 32 56 8 65 -19 8 -63 -38 -63 -67 0 -10 -4 -22 -10 -25 -6 -3
-7 1 -4 9 4 10 -1 18 -11 23 -22 8 -45 -20 -45 -54 0 -29 -16 -30 -23 -2 -3
13 10 49 34 97 45 86 54 134 27 140 -11 2 -25 -8 -37 -29z"/>
<path d="M1201 3391 c-41 -41 -60 -88 -63 -157 -3 -80 42 -107 103 -63 l30 21
-7 -51 c-6 -44 -4 -51 9 -46 14 6 47 111 47 150 0 26 -28 16 -55 -20 -31 -39
-63 -54 -76 -34 -14 22 -10 96 6 136 33 80 75 96 96 38 14 -39 21 -42 39 -20
20 24 -18 79 -57 83 -26 3 -39 -4 -72 -37z"/>
<path d="M1380 3421 c-14 -4 -26 -15 -28 -24 -3 -15 1 -17 25 -11 25 7 27 6
15 -9 -8 -9 -16 -31 -19 -49 -3 -18 -10 -39 -16 -46 -8 -10 -7 -16 2 -22 15
-9 7 -75 -11 -98 -13 -15 -11 -17 20 -26 12 -4 22 -3 22 1 0 5 22 15 49 22 53
13 87 42 78 65 -3 7 -26 22 -52 31 -25 10 -44 21 -43 26 2 4 26 23 53 42 55
37 69 72 39 94 -19 14 -91 16 -134 4z m107 -48 c3 -9 -67 -68 -73 -60 0 1 1
19 4 40 4 36 6 38 35 35 17 -2 32 -8 34 -15z m-13 -154 c6 -5 -6 -15 -27 -24
-50 -21 -54 -20 -49 19 4 34 5 34 35 24 18 -6 36 -15 41 -19z"/>
<path d="M2461 3391 c-41 -41 -60 -88 -63 -157 -3 -80 42 -107 103 -63 l30 21
-7 -51 c-6 -44 -4 -51 9 -46 14 6 47 111 47 150 0 26 -28 16 -55 -20 -31 -39
-63 -54 -76 -34 -14 22 -10 96 6 136 33 80 75 96 96 38 14 -39 21 -42 39 -20
20 24 -18 79 -57 83 -26 3 -39 -4 -72 -37z"/>
<path d="M2816 3408 c-18 -26 -56 -140 -56 -169 0 -10 -9 -23 -19 -29 -27 -14
-31 -13 -31 8 0 31 -11 32 -49 5 l-36 -27 43 45 c23 25 42 48 42 52 0 18 -30
3 -74 -36 -36 -31 -50 -51 -52 -75 -5 -40 13 -42 53 -8 29 25 30 25 46 5 14
-16 21 -17 37 -9 11 6 20 16 20 22 0 21 18 -6 22 -32 4 -32 28 -36 55 -10 12
11 25 20 29 20 4 0 16 7 26 17 17 15 18 15 18 -5 0 -30 17 -36 64 -21 51 16
68 28 59 42 -4 6 -7 24 -7 41 -1 24 -6 31 -31 37 -26 8 -35 4 -73 -34 -24 -23
-40 -34 -37 -25 5 12 1 20 -10 25 -22 8 -45 -20 -45 -54 0 -29 -16 -30 -23 -2
-3 13 10 49 34 97 44 86 54 134 27 140 -9 2 -23 -7 -32 -20z m164 -177 c0 -5
-9 -19 -19 -32 -26 -32 -49 -14 -25 19 15 22 44 30 44 13z"/>
<path d="M3053 3418 c-23 -28 -32 -243 -12 -263 7 -7 15 -4 25 9 16 23 19 40
4 31 -6 -4 -10 6 -10 24 0 33 14 44 69 55 33 6 33 5 28 -23 -16 -77 -19 -131
-8 -131 6 0 13 12 17 28 3 15 14 61 24 102 26 108 34 183 19 178 -18 -6 -27
-27 -34 -80 l-6 -48 -51 0 -50 0 7 53 c4 28 8 56 9 61 2 14 -20 17 -31 4z"/>
<path d="M3263 3424 c-9 -4 -13 -29 -13 -73 0 -37 -4 -71 -8 -76 -10 -12 -3
-125 8 -125 4 0 11 15 14 34 l7 34 65 -44 c36 -24 70 -44 75 -44 19 0 8 28
-17 45 -14 9 -43 33 -65 52 l-40 36 49 28 c80 46 91 74 41 111 -26 20 -93 32
-116 22z m96 -59 c18 -17 8 -31 -39 -55 l-38 -19 5 39 c4 26 2 40 -6 40 -6 0
-11 5 -11 11 0 15 70 2 89 -16z"/>
<path d="M343 3073 c-18 -7 -16 -81 1 -99 12 -12 115 -14 665 -14 l651 0 6 24
c3 13 4 38 2 57 l-3 34 -655 2 c-360 1 -661 -1 -667 -4z"/>
<path d="M2257 3073 c-9 -8 -9 -76 -1 -97 6 -14 73 -16 656 -16 549 0 652 2
664 14 20 20 19 92 -2 100 -21 8 -1309 8 -1317 -1z"/>
<path d="M330 1845 l0 -55 1630 0 1630 0 0 55 0 55 -1630 0 -1630 0 0 -55z"/>
<path d="M330 656 c0 -31 5 -46 16 -50 20 -8 3208 -8 3228 0 11 4 16 19 16 50
l0 44 -1630 0 -1630 0 0 -44z"/>
</g>
</svg>
